<?xml version="1.0" standalone="no"?>
<!DOCTYPE svg PUBLIC "-//W3C//DTD SVG 20010904//EN"
 "http://www.w3.org/TR/2001/REC-SVG-20010904/DTD/svg10.dtd">
<svg version="1.0" xmlns="http://www.w3.org/2000/svg"
 width="512.000000pt" height="512.000000pt" viewBox="0 0 512.000000 512.000000"
 preserveAspectRatio="xMidYMid meet">

<g transform="translate(0.000000,512.000000) scale(0.100000,-0.100000)"
fill="#000000" stroke="none">
<path d="M0 2560 l0 -2560 2560 0 2560 0 0 2560 0 2560 -2560 0 -2560 0 0
-2560z m3246 961 c60 -37 66 -119 13 -167 -14 -13 -19 -31 -19 -70 l0 -53 33
7 c44 10 483 9 530 -1 l37 -8 0 52 c0 42 -4 54 -24 70 -37 29 -50 79 -32 122
29 71 108 87 162 33 49 -49 45 -114 -8 -157 -17 -13 -21 -30 -23 -83 -2 -65
-1 -67 28 -83 45 -23 133 -109 162 -158 42 -73 55 -145 55 -310 0 -173 -12
-229 -62 -289 -63 -76 -56 -76 -561 -76 -382 0 -453 2 -485 16 -47 19 -88 58
-115 109 -21 37 -22 54 -22 245 0 202 0 206 27 263 37 79 86 135 157 181 l61
40 0 62 c0 58 -3 65 -35 97 -42 42 -47 89 -14 131 38 48 85 57 135 27z m-286
-359 c0 -5 -22 -28 -49 -50 l-50 -42 -210 0 c-198 0 -212 1 -231 20 -11 11
-20 25 -20 30 0 6 9 19 20 30 19 19 33 20 280 20 143 0 260 -4 260 -8z m-242
-224 c15 -15 15 -51 0 -66 -9 -9 -86 -12 -283 -12 -285 0 -295 2 -295 45 0 43
10 45 295 45 197 0 274 -3 283 -12z m1523 -98 c31 -17 49 -64 49 -132 0 -68
-21 -117 -59 -138 -21 -11 -21 -9 -21 135 0 80 3 145 6 145 3 0 14 -5 25 -10z
m-1381 -140 c0 -77 -4 -140 -8 -140 -5 0 -21 13 -37 30 -22 23 -29 41 -33 84
-2 30 -2 66 2 80 7 27 53 86 67 86 5 0 9 -62 9 -140z m-162 24 c24 -17 29 -53
10 -72 -8 -8 -64 -12 -184 -12 -183 0 -204 5 -204 50 0 41 35 50 200 50 125 0
160 -3 178 -16z m-1458 -439 l0 -65 -150 0 -150 0 0 -85 0 -85 135 0 135 0 0
-65 0 -65 -135 0 -135 0 0 -145 0 -145 -80 0 -80 0 0 360 0 360 230 0 230 0 0
-65z m1838 50 c137 -41 182 -197 86 -293 -38 -38 -40 -42 -20 -42 26 0 83 -64
96 -107 28 -91 -17 -190 -107 -234 -44 -22 -62 -24 -225 -27 l-178 -4 0 361 0
361 148 0 c105 0 164 -5 200 -15z m-568 -100 l0 -65 65 0 65 0 0 -65 0 -65
-65 0 -65 0 0 -123 c0 -154 8 -172 81 -165 l49 5 0 -58 0 -58 -42 -12 c-56
-15 -133 -7 -166 18 -53 39 -62 73 -62 241 l0 152 -50 0 -50 0 0 65 0 65 50 0
50 0 0 65 0 65 70 0 70 0 0 -65z m1650 0 l0 -65 60 0 60 0 0 -65 0 -65 -60 0
-60 0 0 -134 c0 -155 3 -162 75 -154 l45 6 0 -59 0 -58 -37 -10 c-99 -28 -175
-3 -210 69 -21 40 -23 59 -23 192 l0 148 -50 0 -50 0 0 65 0 65 50 0 50 0 0
65 0 65 75 0 75 0 0 -65z m-2523 -84 c90 -46 102 -83 103 -328 l0 -193 -66 0
c-57 0 -67 3 -71 19 -5 19 -6 19 -46 -2 -61 -32 -141 -34 -197 -5 -57 29 -84
76 -84 143 0 65 26 111 79 139 31 16 62 22 143 24 56 2 102 7 102 11 0 5 -5
22 -11 39 -21 59 -132 74 -221 28 l-48 -25 0 63 0 63 38 16 c91 41 209 44 279
8z m508 0 l50 -16 3 -66 3 -66 -49 24 c-58 29 -149 41 -180 24 -27 -14 -29
-56 -4 -70 9 -5 55 -19 101 -32 131 -35 183 -98 160 -196 -10 -49 -73 -108
-130 -123 -55 -15 -170 -7 -226 15 l-43 17 0 67 0 68 59 -30 c96 -47 211 -40
211 14 0 25 -30 42 -120 69 -127 38 -166 81 -158 177 4 46 10 60 40 90 63 62
161 74 283 34z m1571 4 c45 -19 112 -82 137 -129 31 -58 31 -193 0 -251 -109
-205 -408 -205 -508 0 -24 48 -27 64 -24 138 4 72 8 90 34 132 57 92 157 140
270 129 32 -3 73 -11 91 -19z"/>
<path d="M3206 2900 c-41 -37 -53 -84 -32 -134 32 -78 129 -97 188 -39 106
107 -43 272 -156 173z"/>
<path d="M3722 2902 c-57 -53 -55 -130 4 -181 43 -38 87 -41 135 -8 97 65 51
217 -66 217 -33 0 -50 -6 -73 -28z"/>
<path d="M3312 2538 c-16 -16 -15 -43 2 -57 9 -8 79 -11 231 -9 195 3 219 5
229 21 8 12 8 22 0 35 -10 15 -34 17 -230 20 -162 2 -223 -1 -232 -10z"/>
<path d="M2879 2226 c-2 -2 -3 -41 -1 -86 l4 -83 71 6 c61 4 74 8 94 31 45 53
19 112 -57 127 -49 9 -104 12 -111 5z"/>
<path d="M2880 1851 l0 -91 71 0 c114 0 156 30 147 105 -5 47 -47 69 -139 74
l-79 3 0 -91z"/>
<path d="M1432 1844 c-28 -19 -29 -67 -2 -94 31 -31 113 -28 145 5 29 29 35
89 9 99 -32 12 -129 6 -152 -10z"/>
<path d="M3541 2032 c-50 -25 -74 -63 -78 -124 -3 -41 1 -60 16 -86 57 -90
179 -95 231 -9 26 43 27 131 1 173 -20 33 -75 64 -113 64 -12 0 -38 -8 -57
-18z"/>
</g>
</svg>
