<?xml version="1.0" standalone="no"?>
<!DOCTYPE svg PUBLIC "-//W3C//DTD SVG 20010904//EN"
 "http://www.w3.org/TR/2001/REC-SVG-20010904/DTD/svg10.dtd">
<svg version="1.0" xmlns="http://www.w3.org/2000/svg"
 width="51.000000pt" height="51.000000pt" viewBox="0 0 51.000000 51.000000"
 preserveAspectRatio="xMidYMid meet">

<g transform="translate(0.000000,51.000000) scale(0.100000,-0.100000)"
fill="#000000" stroke="none">
<path d="M117 394 c-4 -4 -7 -67 -7 -141 l0 -133 140 0 140 0 0 140 0 140 -65
0 c-58 0 -65 -2 -65 -20 0 -17 7 -20 50 -20 l50 0 0 -105 0 -105 -105 0 -105
0 0 105 c0 98 1 105 20 105 18 0 20 -7 20 -85 0 -69 3 -85 15 -85 9 0 15 9 15
22 l0 21 23 -21 c13 -12 32 -22 42 -22 16 0 15 4 -8 28 -33 35 -33 42 -2 72
14 13 25 27 25 32 0 17 -27 7 -51 -18 l-24 -26 -5 59 -5 58 -45 3 c-25 2 -49
0 -53 -4z"/>
</g>
</svg>
